<?xml version="1.0" encoding="iso-8859-1"?>
<!-- Generator: Adobe Illustrator 19.0.0, SVG Export Plug-In . SVG Version: 6.00 Build 0)  -->
<svg version="1.1" id="Layer_1" xmlns="http://www.w3.org/2000/svg" xmlns:xlink="http://www.w3.org/1999/xlink" x="0px" y="0px"
	 viewBox="0 0 503.323 503.323" style="enable-background:new 0 0 503.323 503.323;" xml:space="preserve">
<g>
	<g>
		<path style="fill:#A5A5A5;" d="M251.662,269.018c-4.79,0-8.678-3.879-8.678-8.678v-34.712c0-4.799,3.888-8.678,8.678-8.678
			s8.678,3.879,8.678,8.678v34.712C260.34,265.139,256.452,269.018,251.662,269.018"/>
		<path style="fill:#A5A5A5;" d="M277.696,269.018c0-14.379-11.655-26.034-26.034-26.034c-14.379,0-26.034,11.654-26.034,26.034
			s11.655,26.034,26.034,26.034C266.041,295.052,277.696,283.397,277.696,269.018"/>
	</g>
	<path style="fill:#CA3E49;" d="M374.614,179.521l-122.949,46.106L165.848,23.031C161.952,11.759,170.326,0,182.249,0h135.203
		c7.376,0,13.945,4.66,16.375,11.62l51.07,145.92C388.021,166.443,383.448,176.206,374.614,179.521"/>
	<path style="fill:#9B2432;" d="M165.851,23.034c-0.781-2.265-0.963-4.53-0.816-6.725l-46.609,141.225
		c-3.124,8.912,1.449,18.675,10.283,21.99l122.949,46.106L165.851,23.034z"/>
	<path style="fill:#F8D832;" d="M355.797,399.187c0-57.509-46.627-104.136-104.136-104.136s-104.136,46.627-104.136,104.136
		c0,57.509,46.627,104.136,104.136,104.136S355.797,456.696,355.797,399.187"/>
	<path style="fill:#C4A316;" d="M251.662,321.086l17.425,52.068h51.998l-43.39,34.712l17.356,52.068l-43.39-26.034l-43.39,26.034
		l17.356-52.068l-43.39-34.712h51.998L251.662,321.086z"/>
	<g>
		<path style="fill:#FFFFFF;" d="M338.8,192.951L269.02,0.005h-34.712l73.511,204.566L338.8,192.951z"/>
		<path style="fill:#FFFFFF;" d="M198.283,99.605l-33.757,93.349l30.98,11.611l21.678-60.329L198.283,99.605z"/>
	</g>
</g>
<g>
</g>
<g>
</g>
<g>
</g>
<g>
</g>
<g>
</g>
<g>
</g>
<g>
</g>
<g>
</g>
<g>
</g>
<g>
</g>
<g>
</g>
<g>
</g>
<g>
</g>
<g>
</g>
<g>
</g>
</svg>
