<?xml version="1.0" encoding="iso-8859-1"?>
<!-- Generator: Adobe Illustrator 19.0.0, SVG Export Plug-In . SVG Version: 6.00 Build 0)  -->
<svg version="1.1" id="Layer_1" xmlns="http://www.w3.org/2000/svg" xmlns:xlink="http://www.w3.org/1999/xlink" x="0px" y="0px"
	 viewBox="0 0 511.83 511.83" style="enable-background:new 0 0 511.83 511.83;" xml:space="preserve">
<g>
	<g>
		<path style="fill:#A5A5A5;" d="M255.915,273.485c-4.873,0-8.828-3.946-8.828-8.828v-35.31c0-4.882,3.955-8.828,8.828-8.828
			s8.828,3.946,8.828,8.828v35.31C264.743,269.539,260.788,273.485,255.915,273.485"/>
		<path style="fill:#A5A5A5;" d="M282.398,273.485c0-14.627-11.855-26.483-26.483-26.483c-14.627,0-26.483,11.855-26.483,26.483
			s11.855,26.483,26.483,26.483C270.543,299.968,282.398,288.112,282.398,273.485"/>
	</g>
	<path style="fill:#CA3E49;" d="M380.987,182.616l-125.069,46.901L168.622,23.428C164.658,11.961,173.177,0,185.306,0H322.84
		c7.503,0,14.186,4.74,16.658,11.82l51.95,148.436C394.626,169.313,389.974,179.244,380.987,182.616"/>
	<path style="fill:#9B2432;" d="M168.625,23.431c-0.794-2.304-0.98-4.608-0.83-6.841l-47.413,143.66
		c-3.178,9.066,1.474,18.997,10.461,22.369l125.069,46.901L168.625,23.431z"/>
	<path style="fill:#F8D832;" d="M255.915,299.968l25.83,79.095l80.102,0.353l-64.141,48.772l28.831,83.641l-70.621-52.966
		l-70.621,52.966l28.831-83.641l-64.141-48.772l80.102-0.353L255.915,299.968z"/>
	<g>
		<path style="fill:#FFFFFF;" d="M344.556,196.278L273.573,0.005h-35.31l74.778,208.093L344.556,196.278z"/>
		<path style="fill:#FFFFFF;" d="M201.616,101.322l-34.339,94.958l31.514,11.811l22.051-61.369L201.616,101.322z"/>
	</g>
</g>
<g>
</g>
<g>
</g>
<g>
</g>
<g>
</g>
<g>
</g>
<g>
</g>
<g>
</g>
<g>
</g>
<g>
</g>
<g>
</g>
<g>
</g>
<g>
</g>
<g>
</g>
<g>
</g>
<g>
</g>
</svg>
