<?xml version="1.0" encoding="iso-8859-1"?>
<!-- Generator: Adobe Illustrator 19.0.0, SVG Export Plug-In . SVG Version: 6.00 Build 0)  -->
<svg version="1.1" id="Layer_1" xmlns="http://www.w3.org/2000/svg" xmlns:xlink="http://www.w3.org/1999/xlink" x="0px" y="0px"
	 viewBox="0 0 511.999 511.999" style="enable-background:new 0 0 511.999 511.999;" xml:space="preserve">
<g>
	<rect x="245.102" y="217.315" style="fill:#D39A29;" width="21.785" height="79.877"/>
	<path style="fill:#D39A29;" d="M380.98,370.972l-54.479,53.104l12.86,74.994c1.547,9.018-7.919,15.894-16.017,11.637
		l-67.341-35.401l-67.351,35.401c-8.099,4.257-17.563-2.621-16.017-11.639l12.87-74.993l-54.487-53.104
		c-6.554-6.387-2.937-17.515,6.119-18.83l75.298-10.934l33.671-68.228c4.05-8.206,15.749-8.206,19.799,0l33.671,68.228
		l75.288,10.934C383.917,353.457,387.533,364.585,380.98,370.972z"/>
</g>
<polygon style="fill:#FCBB29;" points="331.984,376.488 293.994,413.522 302.962,465.806 256.004,441.116 209.046,465.806 
	218.014,413.522 180.024,376.488 232.525,368.864 256.004,321.288 279.483,368.864 "/>
<g>
	<polygon style="fill:#088443;" points="178.511,0 178.511,209.085 169.434,203.953 142.009,188.438 142.009,0 	"/>
	<polygon style="fill:#088443;" points="369.999,0 369.999,188.438 342.562,203.953 333.485,209.085 333.485,0 	"/>
</g>
<polygon style="fill:#06B559;" points="333.485,0 333.485,209.085 324.408,214.216 256.004,252.92 187.588,214.216 178.511,209.085 
	178.511,0 "/>
<g>
	<polygon style="fill:#FCBB29;" points="342.562,0 342.562,203.953 333.485,209.085 324.408,214.216 324.408,0 	"/>
	<polygon style="fill:#FCBB29;" points="187.588,0 187.588,214.216 178.511,209.085 169.434,203.953 169.434,0 	"/>
</g>
<g>
</g>
<g>
</g>
<g>
</g>
<g>
</g>
<g>
</g>
<g>
</g>
<g>
</g>
<g>
</g>
<g>
</g>
<g>
</g>
<g>
</g>
<g>
</g>
<g>
</g>
<g>
</g>
<g>
</g>
</svg>
