<?xml version="1.0" encoding="iso-8859-1"?>
<!-- Generator: Adobe Illustrator 19.0.0, SVG Export Plug-In . SVG Version: 6.00 Build 0)  -->
<svg version="1.1" id="Layer_1" xmlns="http://www.w3.org/2000/svg" xmlns:xlink="http://www.w3.org/1999/xlink" x="0px" y="0px"
	 viewBox="0 0 512.001 512.001" style="enable-background:new 0 0 512.001 512.001;" xml:space="preserve">
<g>
	<path style="fill:#354577;" d="M70.622,388.414H441.38v-88.276H70.622V388.414z"/>
	<g>
		<path style="fill:#172644;" d="M70.622,388.414v-52.965H0.001l35.31,44.138l-35.31,44.138h97.103v-35.31H70.622z"/>
		<path style="fill:#172644;" d="M512.001,335.449H441.38v52.965h-26.483v35.31h97.103l-35.31-44.138L512.001,335.449z"/>
	</g>
	<path style="fill:#F8D832;" d="M357.342,300.138c13.983-20.03,22.246-44.341,22.246-70.621
		c0-68.255-55.331-123.586-123.586-123.586s-123.586,55.331-123.586,123.586c0,26.28,8.263,50.591,22.246,70.621H357.342z"/>
	<path style="fill:#C4A316;" d="M229.518,273.656l19.862,26.483h13.241l19.862-26.483h44.138l-23.773-44.138l23.773-44.138h-44.138
		l-26.624-35.31l-26.342,35.31H185.38l23.49,44.138l-23.49,44.138H229.518z"/>
	<g>
		<path style="fill:#930B1F;" d="M379.587,88.276l-32.865,57.521c20.339,22.025,32.865,51.377,32.865,83.721
			c0,26.271-8.236,50.6-22.228,70.621h44.209c12.085-5.756,22.881-14.186,31.462-24.894c5.535-6.903,10.019-14.592,13.312-22.81
			l65.66-164.158H379.587z"/>
		<path style="fill:#930B1F;" d="M110.433,300.138h44.209c-13.983-20.021-22.228-44.35-22.228-70.621
			c0-32.344,12.526-61.696,32.865-83.721l-32.865-57.521H0l65.66,164.158c3.293,8.218,7.777,15.907,13.312,22.81
			C87.552,285.952,98.357,294.383,110.433,300.138"/>
	</g>
	<g>
		<path style="fill:#6B0F21;" d="M61.794,114.759H14.125c-1.165,0-2.251,0.256-3.266,0.653l6.797,17.002h44.138
			c4.882,0,8.828-3.946,8.828-8.828S66.676,114.759,61.794,114.759"/>
		<path style="fill:#6B0F21;" d="M70.622,150.069H28.249c-1.156,0-2.251,0.256-3.266,0.662l6.797,16.993h38.841
			c4.882,0,8.828-3.946,8.828-8.828S75.503,150.069,70.622,150.069"/>
		<path style="fill:#6B0F21;" d="M88.277,185.38H42.373c-1.156,0-2.251,0.256-3.266,0.662l6.797,16.993h42.372
			c4.882,0,8.828-3.946,8.828-8.828C97.104,189.326,93.158,185.38,88.277,185.38"/>
		<path style="fill:#6B0F21;" d="M497.88,114.759h-47.669c-4.882,0-8.828,3.946-8.828,8.828s3.946,8.828,8.828,8.828h44.138
			l6.797-17.002C500.131,115.015,499.037,114.759,497.88,114.759"/>
		<path style="fill:#6B0F21;" d="M487.021,150.729c-1.015-0.406-2.11-0.662-3.266-0.662h-42.372c-4.882,0-8.828,3.955-8.828,8.828
			c0,4.882,3.946,8.828,8.828,8.828h38.841L487.021,150.729z"/>
		<path style="fill:#6B0F21;" d="M472.896,186.038c-1.015-0.406-2.11-0.662-3.266-0.662h-45.903c-4.882,0-8.828,3.955-8.828,8.828
			c0,4.882,3.946,8.828,8.828,8.828h42.372L472.896,186.038z"/>
	</g>
</g>
<g>
</g>
<g>
</g>
<g>
</g>
<g>
</g>
<g>
</g>
<g>
</g>
<g>
</g>
<g>
</g>
<g>
</g>
<g>
</g>
<g>
</g>
<g>
</g>
<g>
</g>
<g>
</g>
<g>
</g>
</svg>
